<?xml version="1.0" standalone="no"?>
<!DOCTYPE svg PUBLIC "-//W3C//DTD SVG 20010904//EN"
 "http://www.w3.org/TR/2001/REC-SVG-20010904/DTD/svg10.dtd">
<svg version="1.0" xmlns="http://www.w3.org/2000/svg"
 width="2223.000000pt" height="692.000000pt" viewBox="0 0 2223.000000 692.000000"
 preserveAspectRatio="xMidYMid meet">

<g transform="translate(0.000000,692.000000) scale(0.100000,-0.100000)"
fill="#000000" stroke="none">
<path d="M770 3730 c0 -2022 1 -2130 18 -2130 12 0 13 3 4 8 -10 7 -12 438
-10 2123 l3 2114 10330 0 10330 0 3 -2114 c2 -1685 0 -2116 -10 -2123 -9 -5
-8 -8 5 -8 16 0 17 108 17 2130 l0 2130 -10345 0 -10345 0 0 -2130z"/>
<path d="M19770 5210 l0 -39 68 -3 67 -3 3 -212 2 -213 45 0 45 0 2 213 3 212
68 3 67 3 0 39 0 40 -185 0 -185 0 0 -40z"/>
<path d="M20210 4995 l0 -255 40 0 40 0 1 193 c0 123 4 185 9 172 5 -11 23
-81 40 -155 53 -229 44 -210 94 -210 l44 0 36 153 c20 83 39 168 43 187 5 22
10 -31 13 -150 l5 -185 43 -3 42 -3 0 255 0 256 -70 0 c-68 0 -70 -1 -77 -27
-3 -16 -23 -93 -43 -173 l-36 -145 -43 173 -43 172 -69 0 -69 0 0 -255z"/>
<path d="M5568 4929 c-604 -75 -1081 -538 -1178 -1144 -16 -101 -14 -324 5
-430 48 -278 178 -528 380 -730 186 -186 412 -308 676 -366 136 -31 396 -33
531 -6 260 52 485 169 674 349 206 198 335 424 396 698 30 139 33 418 5 548
-57 258 -174 482 -349 668 -194 204 -467 352 -737 399 -110 20 -304 26 -403
14z m367 -629 c130 -41 222 -96 315 -190 97 -98 139 -163 184 -287 29 -84 31
-95 31 -238 0 -168 -13 -225 -83 -360 -55 -106 -200 -248 -312 -303 -378 -188
-826 -41 -1009 332 -69 140 -93 287 -71 431 48 316 275 560 585 629 98 22 267
15 360 -14z"/>
<path d="M18945 4930 c-250 -29 -505 -142 -678 -299 -128 -118 -258 -336 -312
-526 -137 -478 -46 -1064 221 -1418 145 -193 340 -313 599 -368 118 -26 372
-36 486 -20 347 50 606 227 772 531 35 66 99 229 111 285 l7 31 -158 38 c-87
22 -163 41 -169 43 -5 2 -16 -20 -23 -49 -80 -321 -297 -538 -587 -588 -89
-16 -285 -8 -369 15 -222 60 -411 224 -498 431 -174 414 -128 1023 98 1322 95
125 264 231 430 269 108 24 324 24 415 0 191 -51 328 -164 418 -347 28 -58 54
-118 58 -134 8 -33 6 -34 210 15 l132 31 -12 41 c-49 160 -128 289 -256 417
-116 116 -204 173 -341 221 -154 55 -379 79 -554 59z"/>
<path d="M7530 3575 l0 -1315 345 0 345 0 0 1035 0 1035 163 0 c218 0 311 -25
349 -93 8 -14 15 -86 18 -187 6 -185 15 -214 80 -257 32 -22 41 -23 255 -23
137 0 234 4 254 11 47 16 60 53 71 191 22 292 23 352 6 416 -44 173 -160 309
-331 387 -88 41 -274 91 -385 105 -48 6 -316 10 -627 10 l-543 0 0 -1315z"/>
<path d="M13480 3611 l0 -1281 170 0 170 0 0 524 0 524 458 5 c426 4 464 5
557 26 264 59 413 168 516 376 63 129 74 185 74 375 -1 154 -3 170 -28 245
-88 253 -251 396 -522 458 -85 19 -128 21 -742 24 l-653 4 0 -1280z m1342 951
c184 -74 286 -267 258 -487 -25 -196 -127 -313 -325 -371 -52 -15 -116 -18
-497 -21 l-438 -4 0 456 0 456 473 -3 c464 -3 473 -4 529 -26z"/>
<path d="M16295 4878 c-6 -17 -961 -2507 -970 -2530 -7 -17 5 -18 173 -18
l179 0 139 390 139 390 540 0 541 0 148 -390 149 -390 190 0 c175 0 189 1 185
18 -3 9 -236 585 -519 1280 l-513 1262 -189 0 c-141 0 -189 -3 -192 -12z m245
-433 c39 -119 321 -886 385 -1047 7 -17 -18 -18 -429 -18 -240 0 -436 4 -436
9 0 4 70 196 156 425 142 381 234 663 250 767 4 22 10 37 14 32 4 -4 31 -80
60 -168z"/>
<path d="M11370 4869 c-600 -5 -652 -7 -740 -26 -280 -61 -456 -170 -616 -382
-207 -276 -299 -617 -273 -1022 24 -391 147 -681 385 -910 166 -159 341 -248
579 -296 66 -13 184 -16 698 -20 l617 -4 0 279 0 280 -527 5 c-562 4 -580 6
-715 57 -76 28 -160 106 -199 182 -31 62 -59 162 -59 216 l0 32 750 0 750 0 0
285 0 285 -750 0 -750 0 0 31 c0 52 31 171 61 236 55 116 150 176 319 203 38
6 281 10 593 10 l527 0 0 285 c0 157 -1 284 -2 283 -2 -1 -293 -5 -648 -9z"/>
<path d="M2595 4858 c-333 -38 -561 -158 -736 -390 -182 -243 -272 -587 -256
-988 13 -319 84 -558 233 -782 136 -205 309 -347 506 -414 188 -64 325 -74
984 -74 l554 0 0 279 0 279 -492 5 c-547 5 -580 8 -713 72 -245 118 -365 348
-365 701 0 156 14 256 51 368 67 203 186 311 401 368 79 21 109 22 601 25
l517 4 0 280 0 279 -602 -1 c-332 -1 -639 -6 -683 -11z"/>
</g>
</svg>
